<?xml version="1.0" encoding="UTF-8" standalone="no"?>
<svg
   xmlns:dc="http://purl.org/dc/elements/1.1/"
   xmlns:cc="http://creativecommons.org/ns#"
   xmlns:rdf="http://www.w3.org/1999/02/22-rdf-syntax-ns#"
   xmlns:svg="http://www.w3.org/2000/svg"
   xmlns="http://www.w3.org/2000/svg"
   viewBox="0 0 1312.4933 1110.7733"
   height="1110.7733"
   width="1312.4933"
   xml:space="preserve"
   id="svg2"
   version="1.1"><metadata
     id="metadata8"><rdf:RDF><cc:Work
         rdf:about=""><dc:format>image/svg+xml</dc:format><dc:type
           rdf:resource="http://purl.org/dc/dcmitype/StillImage" /></cc:Work></rdf:RDF></metadata><defs
     id="defs6" /><g
     transform="matrix(1.3333333,0,0,-1.3333333,0,1110.7733)"
     id="g10"><g
       transform="scale(0.1)"
       id="g12"><path
         id="path14"
         style="fill:#100f0d;fill-opacity:1;fill-rule:nonzero;stroke:none"
         d="m 3486.2,5172.36 v 582.63 c 0,161.2 137.37,287.04 313.13,287.04 176.18,0 313.31,-125.84 313.31,-287.04 V 5172.3 c 0,-161.08 -137.13,-287.34 -313.31,-287.34 -175.76,0 -313.13,128.35 -313.13,287.4 m -325.48,582.63 v -582.63 c 0,-337.8 286.37,-612.6 638.61,-612.6 352.54,0 639.22,274.8 639.22,612.54 v 582.69 c 0,337.87 -286.68,612.61 -639.22,612.61 -352.24,0 -638.61,-274.74 -638.61,-612.61" /><path
         id="path16"
         style="fill:#100f0d;fill-opacity:1;fill-rule:nonzero;stroke:none"
         d="m 7095.16,5463.15 624.55,625.71 c 63.43,63.72 63.43,166.56 -0.18,230.28 -63.67,63.39 -166.52,63.39 -230.13,-0.06 l -670.24,-672.12 v 556.78 c 0,89.85 -73.1,162.77 -163.05,162.77 -89.84,0 -162.99,-72.92 -162.99,-162.77 v -950.22 -532.3 c 0,-89.85 73.15,-162.74 162.99,-162.74 89.95,0 163.05,72.89 163.05,162.74 v 465 l 45.5,48.31 615.5,-612.63 c 63.55,-63.6 175.33,-79.28 238.87,-15.8 63.8,63.44 63.92,166.4 0.5,230.03 l -624.37,627.02 v 0" /><path
         id="path18"
         style="fill:#100f0d;fill-opacity:1;fill-rule:nonzero;stroke:none"
         d="m 5962.9,5191.22 c -76.89,21.06 -161.16,-16.74 -197.79,-101.05 -4.3,-9.92 -10.54,-21.06 -14.83,-31 -47.78,-104.22 -161.23,-174.21 -287.71,-174.21 -87.42,0 -166.13,31.6 -222.55,83.7 -56.43,51.46 -91.12,123.36 -91.12,203.97 v 582.12 c 0,80.62 34.69,152.51 91.12,203.98 56.42,52.09 135.13,83.7 222.55,83.7 126.48,0 239.93,-69.99 287.71,-174.22 4.29,-9.92 10.53,-21.07 14.83,-31 36.63,-84.3 120.9,-122.11 197.79,-101.05 86.16,24.2 141.74,111.53 106.62,213.27 -83.67,242.33 -310.52,406.43 -579.28,417.42 -1.51,0.06 -2.6,0.39 -4.12,0.45 -7.44,0.61 -15.49,0.61 -23.55,0.61 -21.73,0 -43.17,-1.09 -64.29,-3.15 -6.84,-0.64 -13.44,-2 -20.17,-2.88 -14.22,-1.81 -28.51,-3.54 -42.43,-6.27 -7.63,-1.48 -15.02,-3.68 -22.59,-5.45 -12.71,-2.93 -25.48,-5.71 -37.84,-9.37 -7.81,-2.31 -15.25,-5.28 -22.94,-7.88 -11.75,-3.96 -23.61,-7.75 -35.06,-12.38 -7.62,-3.06 -14.95,-6.75 -22.4,-10.08 -11.07,-4.94 -22.22,-9.75 -32.94,-15.29 -7.2,-3.72 -14.1,-7.99 -21.12,-11.98 -10.48,-5.9 -21.07,-11.72 -31.12,-18.2 -6.84,-4.36 -13.2,-9.2 -19.86,-13.8 -9.75,-6.81 -19.62,-13.53 -28.94,-20.86 -6.42,-4.99 -12.41,-10.41 -18.59,-15.62 -9.02,-7.63 -18.04,-15.16 -26.58,-23.21 -5.87,-5.61 -11.38,-11.54 -17.07,-17.35 -8.17,-8.33 -16.34,-16.62 -24.04,-25.4 -5.39,-6.18 -10.35,-12.65 -15.5,-19.04 -7.26,-8.96 -14.52,-17.89 -21.19,-27.22 -4.96,-6.84 -9.44,-13.92 -14.04,-20.95 -6.17,-9.37 -12.35,-18.73 -18.04,-28.45 -4.36,-7.57 -8.36,-15.35 -12.41,-23.1 -5.09,-9.66 -10.11,-19.28 -14.71,-29.21 -3.76,-8.29 -7.15,-16.8 -10.54,-25.27 -3.93,-9.78 -7.87,-19.56 -11.32,-29.58 -3.09,-9.11 -5.76,-18.4 -8.48,-27.7 -2.78,-9.72 -5.51,-19.43 -7.87,-29.33 -2.3,-9.99 -4.17,-20.1 -5.99,-30.28 -1.7,-9.53 -3.33,-19.03 -4.54,-28.72 -1.39,-10.9 -2.3,-21.95 -3.09,-33.03 -0.42,-5.6 -1.33,-11.05 -1.58,-16.68 -0.66,-8.05 -0.66,-16.74 -0.66,-25.43 v -582.12 c 0,-8.68 0,-17.38 0.66,-25.43 0.25,-5.63 1.16,-11.08 1.58,-16.68 0.79,-11.08 1.7,-22.12 3.09,-33.02 1.21,-9.69 2.84,-19.19 4.54,-28.73 1.82,-10.17 3.69,-20.28 5.99,-30.27 2.36,-9.9 5.09,-19.62 7.87,-29.33 2.72,-9.3 5.39,-18.59 8.48,-27.7 3.45,-10.02 7.39,-19.8 11.32,-29.61 3.39,-8.45 6.78,-16.95 10.54,-25.22 4.6,-9.95 9.62,-19.58 14.71,-29.24 4.05,-7.75 8.05,-15.55 12.41,-23.09 5.69,-9.72 11.87,-19.07 18.04,-28.46 4.6,-7.02 9.08,-14.1 14.04,-20.95 6.67,-9.32 13.93,-18.25 21.19,-27.22 5.15,-6.38 10.11,-12.86 15.5,-19.03 7.7,-8.78 15.87,-17.08 24.04,-25.4 5.69,-5.81 11.2,-11.75 17.07,-17.34 8.54,-8.06 17.56,-15.6 26.58,-23.23 6.18,-5.2 12.17,-10.62 18.59,-15.61 9.32,-7.33 19.19,-14.05 28.94,-20.86 6.66,-4.6 13.02,-9.45 19.86,-13.81 10.05,-6.48 20.64,-12.28 31.12,-18.19 7.02,-4 13.92,-8.26 21.12,-11.99 10.78,-5.56 21.98,-10.41 33.12,-15.38 7.39,-3.3 14.6,-6.93 22.16,-9.99 11.51,-4.63 23.44,-8.44 35.3,-12.44 7.57,-2.57 15.01,-5.5 22.76,-7.8 12.36,-3.67 25.13,-6.45 37.84,-9.39 7.57,-1.75 14.96,-3.97 22.59,-5.45 13.92,-2.72 28.21,-4.45 42.43,-6.27 6.73,-0.87 13.33,-2.24 20.17,-2.87 21.12,-2.06 42.56,-3.15 64.29,-3.15 8.06,0 16.11,0 23.55,0.6 1.52,0.06 2.61,0.4 4.12,0.46 268.76,10.99 492.4,172.88 579.28,417.42 36.02,101.41 -20.46,189.07 -106.62,213.26 v 0" /><path
         id="path20"
         style="fill:#100f0d;fill-opacity:1;fill-rule:nonzero;stroke:none"
         d="m 2209.1,8330.81 c -695.48,0 -1344.42,-558.12 -1344.42,-1342.94 V 3293.28 c 0,-751.71 610.16,-1349.76 1346.36,-1349.76 h 5223.24 c 776.75,0 1339.49,631.59 1339.49,1346.25 v 576.13 80.28 c 0,99.89 -77.37,199.03 -198.57,199.03 H 2684.43 V 6205.2 c 0,91.5 -74.05,165.83 -165.53,165.83 -91.48,0 -165.76,-74.33 -165.76,-165.83 V 4024.34 c 0,-128.53 81.66,-210.9 199.78,-210.9 h 5888.93 c -0.06,-70.81 -0.13,-521.37 -0.13,-525.46 0,-540.86 -429.32,-1013.71 -1007.44,-1013.71 H 2211.04 c -515.34,0 -1015.01,408.73 -1015.01,1015.13 v 3700.4 c 0,530.46 439.27,1009.66 1015.01,1009.66 h 5222.93 c 584.38,0 1006.08,-481.05 1006.08,-1012.47 v -273.05 c 0,-91.48 75.64,-165.86 167.57,-165.86 91.2,0 166.15,74.6 166.15,165.74 0,97.66 0,273.05 0,273.05 0,783.37 -649.59,1343.94 -1339.8,1343.94 H 2209.1 v 0" /><path
         id="path22"
         style="fill:#100f0d;fill-opacity:1;fill-rule:nonzero;stroke:none"
         d="M 0,17.9805 V 1091.01 h 424.047 c 232.422,0 398.734,-93.002 398.734,-335.842 0,-250.148 -166.312,-338.559 -398.734,-338.559 H 230.789 V 17.9805 H 0 Z M 409.09,608.43 c 106.433,0 173.883,37.441 173.883,146.738 0,102.113 -67.45,143.961 -173.883,143.961 H 230.789 V 608.43 H 409.09 v 0" /><path
         id="path24"
         style="fill:#100f0d;fill-opacity:1;fill-rule:nonzero;stroke:none"
         d="M 1020.85,17.9805 V 1091.01 h 798.81 V 899.129 h -568.02 v -220.27 h 527.57 V 485.488 h -527.57 v -275.82 h 587.51 V 17.9805 h -818.3 v 0" /><path
         id="path26"
         style="fill:#100f0d;fill-opacity:1;fill-rule:nonzero;stroke:none"
         d="M 2721.75,17.9805 2592.86,241.219 c -125.87,218.73 -184.3,230.883 -235.22,230.883 h -88.45 V 17.9805 H 2039.91 V 1091.01 h 485.56 c 200.76,0 395.59,-62.99 395.59,-293.74 0,-187.348 -121.33,-278.801 -274.2,-299.879 v -2.911 c 65.93,-17.921 116.91,-95.91 155.84,-160.378 L 2990.08,17.9805 H 2721.75 Z M 2514.93,642.84 c 127.39,0 166.44,49.469 166.44,128.89 0,68.872 -39.05,125.911 -154.38,125.911 h -257.8 V 642.84 h 245.74 v 0" /><path
         id="path28"
         style="fill:#100f0d;fill-opacity:1;fill-rule:nonzero;stroke:none"
         d="M 3145.43,17.9805 V 1091.01 h 737.21 V 899.129 H 3376.16 V 659.27 h 437.58 V 467.508 H 3376.16 V 17.9805 h -230.73 v 0" /><path
         id="path30"
         style="fill:#100f0d;fill-opacity:1;fill-rule:nonzero;stroke:none"
         d="M 4080.19,17.9805 V 1091.01 h 798.87 V 899.129 h -568.08 v -220.27 h 527.51 V 485.488 h -527.51 v -275.82 h 587.39 V 17.9805 h -818.18 v 0" /><path
         id="path32"
         style="fill:#100f0d;fill-opacity:1;fill-rule:nonzero;stroke:none"
         d="M 6014.61,329.691 C 5951.58,98.8203 5792.78,0 5563.44,0 c -322.21,0 -516.98,224.801 -516.98,561.93 0,335.711 224.67,546.99 528.91,546.99 221.83,0 376.21,-106.44 428.64,-305.701 L 5792.78,746.25 c -33,121.379 -121.45,166.391 -229.34,166.391 -163.41,0 -278.87,-133.411 -278.87,-350.711 0,-230.871 113.89,-350.59 278.87,-350.59 116.84,0 200.76,49.48 233.76,185.738 l 217.41,-67.387 v 0" /><path
         id="path34"
         style="fill:#100f0d;fill-opacity:1;fill-rule:nonzero;stroke:none"
         d="M 6441.17,17.9805 V 899.129 h -310.2 v 191.881 h 851.3 V 899.129 H 6671.98 V 17.9805 h -230.81 v 0" /><path
         id="path36"
         style="fill:#100f0d;fill-opacity:1;fill-rule:nonzero;stroke:none"
         d="M 7134.97,17.9805 V 1091.01 h 230.81 V 17.9805 h -230.81 v 0" /><path
         id="path38"
         style="fill:#100f0d;fill-opacity:1;fill-rule:nonzero;stroke:none"
         d="m 7544.58,546.93 c 0,344.761 178.36,561.99 520.08,561.99 362.62,0 521.45,-247.24 521.45,-555.979 C 8586.11,283.32 8461.81,0 8067.58,0 c -425.61,0 -523,317.73 -523,546.93 z m 803.28,10.539 c 0,92.871 -8.87,353.633 -281.77,353.633 -251.77,0 -283.2,-221.891 -283.2,-356.731 0,-169.32 66.02,-343.031 283.2,-356.672 92.93,0 281.77,42.039 281.77,359.77 v 0" /><path
         id="path40"
         style="fill:#100f0d;fill-opacity:1;fill-rule:nonzero;stroke:none"
         d="M 9402.97,17.9805 9001.24,686.289 h -2.85 V 17.9805 H 8784.13 V 1091.01 h 223.31 l 410.48,-687.979 h 3.03 v 687.979 h 214.26 V 17.9805 h -232.24 v 0" /><path
         id="path42"
         style="fill:#100f0d;fill-opacity:1;fill-rule:nonzero;stroke:none"
         d="m 9586.42,8133.07 c 58.03,-31.24 103.97,-76.16 135.9,-134.28 33.17,-58.24 49.35,-118.88 49.35,-181.9 0,-62.66 -16,-122.64 -48.48,-180.12 -31.81,-57.57 -76.26,-102.17 -133.92,-134.31 -57.84,-32.15 -118.29,-48.1 -180.22,-48.1 -63.3,0 -122.75,15.95 -180.53,48.1 -57.6,32.14 -102.42,76.74 -135.16,134.31 -31.43,57.48 -47.92,117.46 -47.92,180.12 0,63.02 16.8,123.66 48.73,181.9 32.92,58.12 77.99,103.04 135.84,134.28 57.65,31.49 117.73,47.02 179.04,47.02 60.88,0 119.47,-15.53 177.37,-47.02 m -391.44,62.82 c -70,-37.42 -124.31,-90.79 -163.05,-160.5 -38.56,-70.2 -58.09,-142.67 -58.09,-218.5 0,-74.87 18.47,-146.91 57.72,-216.11 37.81,-69.26 91.87,-122.87 160.38,-161.17 68.94,-38.17 141.85,-57.48 217.11,-57.48 74.83,0 146.75,19.31 215.69,57.48 69.68,38.3 123.31,91.91 161.5,161.17 37.82,69.2 57.47,141.24 57.47,216.11 0,75.83 -19.9,148.3 -58.09,218.5 -39.56,69.71 -93.8,123.08 -162.68,160.5 -70.18,37.48 -141.48,56.24 -213.89,56.24 -73.77,0 -145.07,-18.76 -214.07,-56.24" /><path
         id="path44"
         style="fill:#100f0d;fill-opacity:1;fill-rule:nonzero;stroke:none"
         d="m 9302.05,8001.73 h 89.89 c 38.87,0 65.16,-3 79.54,-8.6 14.26,-5.63 26.1,-14.26 34.22,-25.67 7.5,-11.71 11.47,-24.61 11.47,-39.11 0,-22.71 -7.75,-40.87 -25.17,-54.7 -16.67,-13.57 -47.49,-20.5 -93.49,-20.5 h -96.46 v 148.58 z m 0,-425.53 v 209.14 h 46.43 c 28.27,0 49.6,-5.63 63.98,-17.19 21.02,-15.17 47.92,-53.49 82.77,-114.46 l 43.15,-77.49 h 91.63 l -54.75,96.38 c -28.58,45.56 -52.14,78.32 -72.66,97.42 -10.41,10.2 -24.42,18.95 -41.84,26.24 42.4,3.24 77.18,18.14 102.35,44.83 25.48,26.68 39.06,58.1 39.06,93.97 0,25.37 -7.75,49.34 -23.5,72.07 -15.43,22.71 -36.14,38.63 -61.93,47.65 -25.36,9.02 -67.76,13.51 -125.36,13.51 H 9222.69 V 7576.2 h 79.36 v 0" /></g></g></svg>